# Blender v2.76 (sub 0) OBJ File: ''
# www.blender.org
mtllib Building.mtl
o Cube_Cube.001
v -10.000000 -17.499998 -10.000003
v -10.000000 -32.500000 -10.000006
v -10.000000 -32.500000 -6.000006
v 10.000000 -17.499998 -10.000003
v 10.000000 -32.500000 -10.000006
v 6.000000 -32.500000 -10.000006
v 10.000000 -17.500002 9.999997
v 10.000000 -32.500000 9.999994
v 10.000000 -32.500000 5.999994
v 10.000000 -32.500000 -6.000006
v -9.000000 12.499998 9.000002
v -10.000000 12.499998 10.000002
v -6.000000 12.499998 10.000002
v -9.000000 2.499999 9.000000
v -10.000000 2.499998 10.000000
v -6.000000 2.499998 10.000000
v 9.000000 22.499998 9.000004
v 10.000000 22.499998 10.000004
v 10.000000 22.499998 6.000003
v 9.000000 12.499998 9.000002
v 10.000000 12.499998 10.000002
v 10.000000 12.499999 6.000001
v 9.000000 2.499999 9.000000
v 10.000000 2.499998 10.000000
v 10.000000 2.499999 6.000000
v 9.000000 -7.500001 8.999999
v 10.000000 -7.500001 9.999999
v 10.000000 -7.500001 5.999998
v 9.000000 -17.500002 8.999997
v 10.000000 -17.500002 5.999997
v 9.000000 22.500002 -8.999996
v 10.000000 22.500002 -9.999996
v 6.000000 22.500002 -9.999996
v 9.000000 12.500002 -8.999998
v 10.000000 12.500002 -9.999998
v 6.000000 12.500002 -9.999998
v 9.000000 2.500001 -9.000000
v 10.000000 2.500002 -10.000000
v 6.000000 2.500002 -10.000000
v 9.000000 -7.499999 -9.000001
v 10.000000 -7.499999 -10.000001
v 6.000000 -7.499999 -10.000001
v 9.000000 -17.499998 -9.000003
v 6.000000 -17.499998 -10.000003
v -9.000000 2.500001 -9.000000
v -10.000000 2.500002 -10.000000
v -10.000000 2.500001 -6.000000
v -9.000000 -17.499998 -9.000003
v -10.000000 -17.499998 -6.000003
v -8.000000 32.500000 -7.999995
v -10.000000 30.500002 -9.999995
v -10.000000 30.500002 -5.999996
v 8.000000 32.500000 -7.999995
v 10.000000 30.500002 -9.999995
v 6.000000 30.500002 -9.999995
v 8.000000 32.500000 8.000005
v 10.000000 30.499998 10.000005
v 10.000000 30.499998 6.000004
v -9.000000 22.500002 -8.999996
v -9.000000 -7.499999 -9.000001
v 6.000000 -7.500001 9.999999
v 5.500000 -17.500002 8.999997
v 6.000000 2.499998 10.000000
v 5.500000 -7.500001 8.999999
v 6.000000 12.499998 10.000002
v 5.500000 2.499999 9.000000
v -6.000000 12.500002 -9.999998
v -5.500000 2.500001 -9.000000
v 6.000000 22.499998 10.000004
v 5.500000 12.499998 9.000002
v 5.500000 12.500002 -8.999998
v -5.500000 12.500002 -8.999998
v 6.000000 30.499998 10.000005
v 5.500000 22.499998 9.000004
v -6.000000 30.500002 -9.999995
v -5.500000 22.500002 -8.999996
v 5.000000 32.500000 8.000005
v 5.500000 -17.499998 -9.000003
v -6.000000 -17.499998 -10.000003
v -5.500000 -7.499999 -9.000001
v -6.000000 -7.499999 -10.000001
v 6.000000 -17.500002 9.999997
v -6.000000 -32.500000 -10.000006
v -6.000000 -32.500000 -6.000006
v 6.000000 -32.500000 9.999994
v 8.000000 32.500000 5.000005
v 5.000000 32.500000 5.000005
v 9.000000 -17.500000 5.499997
v 9.000000 -17.500000 -5.500003
v -10.000000 -7.500001 5.999998
v -9.000000 -17.500000 5.499997
v -9.000000 -17.500002 8.999997
v -10.000000 2.499999 6.000000
v -9.000000 -7.500001 5.499998
v -9.000000 -7.500001 8.999999
v -10.000000 12.499999 6.000001
v -9.000000 2.499999 5.500000
v 9.000000 12.499999 5.500001
v 9.000000 12.500001 -5.499999
v -10.000000 22.499998 6.000003
v -9.000000 12.499999 5.500001
v -10.000000 30.499998 6.000004
v -9.000000 22.500000 5.500003
v -9.000000 22.499998 9.000004
v -8.000000 32.500000 8.000005
v -8.000000 32.500000 5.000005
v -10.000000 -17.500002 5.999997
v 10.000000 -17.499998 -6.000003
v 9.000000 -7.500001 5.499998
v 10.000000 -7.499999 -6.000002
v 9.000000 2.500001 -5.500000
v 10.000000 2.500001 -6.000000
v 10.000000 12.500001 -5.999999
v 9.000000 22.500000 5.500003
v 10.000000 22.500002 -5.999997
v -5.000000 32.500000 5.000005
v 6.000000 -32.500000 5.999994
v -10.000000 -32.500000 5.999994
v -10.000000 -32.500000 9.999994
v -9.000000 12.500001 -5.499999
v -10.000000 12.500001 -5.999999
v -10.000000 22.500002 -5.999997
v -6.000000 -17.500002 9.999997
v -6.000000 -32.500000 9.999994
v -5.500000 22.499998 9.000004
v -6.000000 22.499998 10.000004
v -5.500000 -17.500002 8.999997
v -6.000000 30.499998 10.000005
v -10.000000 -17.500002 9.999997
v -5.000000 32.500000 -7.999995
v -8.000000 32.500000 -4.999995
v -10.000000 22.499998 10.000004
v -10.000000 -7.500001 9.999999
v -6.000000 -7.500001 9.999999
v -10.000000 22.500002 -9.999996
v -9.000000 12.500002 -8.999998
v -10.000000 12.500002 -9.999998
v -10.000000 -7.499999 -10.000001
v -10.000000 -7.499999 -6.000002
v -10.000000 30.499998 10.000005
v -5.500000 -17.499998 -9.000003
v -6.000000 2.500002 -10.000000
v 5.500000 -7.499999 -9.000001
v 5.500000 2.500001 -9.000000
v -6.000000 22.500002 -9.999996
v 5.500000 22.500002 -8.999996
v 5.000000 32.500000 -7.999995
v 5.000000 32.500000 -4.999995
v 6.000000 -32.500000 -6.000006
v -6.000000 -32.500000 5.999994
v 9.000000 -7.499999 -5.500002
v 9.000000 2.499999 5.500000
v 10.000000 30.500002 -5.999996
v 9.000000 22.500000 -5.499997
v 8.000000 32.500000 -4.999995
v -5.000000 32.500000 -4.999995
v -9.000000 22.500000 -5.499997
v -9.000000 2.500001 -5.500000
v -9.000000 -7.499999 -5.500002
v -9.000000 -17.500000 -5.500003
v -5.000000 32.500000 8.000005
v -5.500000 12.499998 9.000002
v -5.500000 2.499999 9.000000
v -5.500000 -7.500001 8.999999
vt 0.609146 0.000000
vt 0.760854 0.000000
vt 0.760854 0.040000
vt 0.203049 0.400000
vt 0.354757 0.400000
vt 0.354757 0.440000
vt 0.506465 0.600000
vt 0.354757 0.600000
vt 0.354757 0.560000
vt 0.162439 0.000000
vt 0.203049 0.000000
vt 0.203049 0.040000
vt 0.416250 0.010000
vt 0.406097 0.000000
vt 0.446707 0.000000
vt 0.213201 0.010000
vt 0.243658 0.000000
vt 0.192896 0.410000
vt 0.203049 0.440000
vt 0.598994 0.010000
vt 0.609146 0.040000
vt 0.395945 0.010000
vt 0.406097 0.040000
vt 0.598994 0.210000
vt 0.609146 0.200000
vt 0.609146 0.240000
vt 0.395945 0.210000
vt 0.406097 0.200000
vt 0.406097 0.240000
vt 0.192896 0.590000
vt 0.203049 0.600000
vt 0.162439 0.600000
vt 0.598994 0.190000
vt 0.568536 0.200000
vt 0.395945 0.190000
vt 0.365488 0.200000
vt 0.598994 0.390000
vt 0.609146 0.400000
vt 0.568536 0.400000
vt 0.395945 0.390000
vt 0.406097 0.400000
vt 0.365488 0.400000
vt 0.213201 0.190000
vt 0.203049 0.200000
vt 0.203049 0.160000
vt 0.213201 0.390000
vt 0.203049 0.360000
vt 0.020305 0.380000
vt 0.000000 0.400000
vt 0.000000 0.360000
vt 0.182744 0.380000
vt 0.162439 0.400000
vt 0.182744 0.220000
vt 0.203049 0.240000
vt 0.944672 0.160000
vt 0.944672 0.200000
vt 0.862877 0.190000
vt 0.915214 0.240000
vt 0.915214 0.200000
vt 0.997009 0.210000
vt 1.000000 0.760000
vt 1.000000 0.800000
vt 0.918205 0.790000
vt 0.000000 0.640000
vt 0.000000 0.600000
vt 0.102023 0.610000
vt 0.760196 0.560000
vt 0.760196 0.600000
vt 0.658173 0.590000
vt 0.408091 0.640000
vt 0.408091 0.600000
vt 0.510114 0.610000
vt 0.711169 0.360000
vt 0.711169 0.400000
vt 0.609146 0.390000
vt 0.813192 0.240000
vt 0.813192 0.200000
vt 0.915214 0.210000
vt 0.714159 0.760000
vt 0.714159 0.800000
vt 0.612137 0.790000
vt 0.306068 0.640000
vt 0.306068 0.600000
vt 0.408091 0.610000
vt 0.612137 0.760000
vt 0.612137 0.800000
vt 0.510114 0.790000
vt 0.102023 0.640000
vt 0.102023 0.600000
vt 0.204046 0.610000
vt 0.306068 0.760000
vt 0.306068 0.800000
vt 0.204046 0.790000
vt 0.816182 0.755000
vt 0.816182 0.790000
vt 0.813192 0.355000
vt 0.813192 0.390000
vt 0.813192 0.360000
vt 0.915214 0.355000
vt 0.915214 0.390000
vt 0.408091 0.760000
vt 0.510114 0.755000
vt 0.816182 0.760000
vt 0.918205 0.755000
vt 0.102023 0.645000
vt 0.102023 0.755000
vt 0.000000 0.960000
vt 0.081795 0.955000
vt 0.081795 0.990000
vt 0.915214 0.360000
vt 0.997009 0.355000
vt 0.997009 0.390000
vt 0.152286 0.220000
vt 0.162439 0.200000
vt 0.360411 0.390000
vt 0.243658 0.400000
vt 0.416250 0.390000
vt 0.451783 0.390000
vt 0.446707 0.400000
vt 0.360411 0.210000
vt 0.563460 0.210000
vt 0.360411 0.010000
vt 0.365488 0.000000
vt 0.563460 0.010000
vt 0.568536 0.000000
vt 0.157363 0.410000
vt 0.000000 0.000000
vt 0.040610 0.000000
vt 0.040610 0.040000
vt 0.658173 0.440000
vt 0.506465 0.440000
vt 0.506465 0.400000
vt 0.182744 0.250000
vt 0.152287 0.250000
vt 0.204046 0.755000
vt 0.204046 0.645000
vt 0.862218 0.440000
vt 0.760196 0.445000
vt 0.760196 0.410000
vt 0.714159 0.640000
vt 0.612137 0.645000
vt 0.612137 0.610000
vt 0.862877 0.040000
vt 0.760854 0.045000
vt 0.760854 0.010000
vt 0.658173 0.555000
vt 0.658173 0.445000
vt 0.964241 0.440000
vt 0.862218 0.445000
vt 0.862218 0.410000
vt 0.944672 0.040000
vt 0.862877 0.045000
vt 0.862877 0.010000
vt 0.020305 0.220000
vt 0.020305 0.250000
vt 0.000000 0.240000
vt 0.213201 0.210000
vt 0.213201 0.245000
vt 0.416250 0.210000
vt 0.416250 0.245000
vt 0.213201 0.045000
vt 0.416250 0.045000
vt 0.010152 0.410000
vt 0.010152 0.445000
vt 0.000000 0.440000
vt 0.395945 0.245000
vt 0.406097 0.360000
vt 0.598994 0.245000
vt 0.609146 0.360000
vt 0.395945 0.155000
vt 0.406097 0.160000
vt 0.598994 0.045000
vt 0.609146 0.160000
vt 0.192896 0.445000
vt 0.203049 0.560000
vt 0.050762 0.250000
vt 0.162439 0.160000
vt 0.760854 0.160000
vt 0.760854 0.200000
vt 0.416250 0.155000
vt 0.964241 0.560000
vt 0.862218 0.555000
vt 0.658173 0.560000
vt 0.506465 0.560000
vt 0.045686 0.410000
vt 0.040610 0.400000
vt 0.248735 0.210000
vt 0.243658 0.200000
vt 0.000000 0.840000
vt 0.081795 0.845000
vt 0.658173 0.600000
vt 0.050762 0.380000
vt 0.020305 0.350000
vt 0.446707 0.200000
vt 0.010152 0.590000
vt 0.000000 0.560000
vt 0.416250 0.190000
vt 0.000000 0.200000
vt 0.040610 0.200000
vt 0.000000 0.800000
vt 0.081795 0.810000
vt 0.964241 0.600000
vt 0.862218 0.590000
vt 0.816182 0.640000
vt 0.816182 0.600000
vt 0.918205 0.610000
vt 0.862877 0.160000
vt 0.862877 0.200000
vt 0.760854 0.190000
vt 0.711169 0.240000
vt 0.711169 0.200000
vt 0.813192 0.210000
vt 0.862218 0.560000
vt 0.862218 0.600000
vt 0.760196 0.590000
vt 0.714159 0.600000
vt 0.816182 0.610000
vt 0.102023 0.760000
vt 0.408091 0.755000
vt 0.408091 0.790000
vt 0.408091 0.645000
vt 0.510114 0.645000
vt 0.000000 0.760000
vt 0.102023 0.790000
vt 0.997009 0.245000
vt 0.152287 0.380000
vt 0.248735 0.390000
vt 0.563460 0.390000
vt 0.248735 0.190000
vt 0.360411 0.190000
vt 0.451783 0.190000
vt 0.563460 0.190000
vt 0.045686 0.590000
vt 0.040610 0.600000
vt 0.157363 0.590000
vt 0.152287 0.350000
vt 0.162439 0.040000
vt 0.040610 0.160000
vt 0.000000 0.160000
vt 0.612137 0.640000
vt 0.609146 0.245000
vt 0.609146 0.210000
vt 0.609146 0.355000
vt 0.760196 0.440000
vt 0.658173 0.410000
vt 1.000000 0.640000
vt 0.918205 0.645000
vt 0.182744 0.350000
vt 0.395945 0.355000
vt 0.598994 0.355000
vt 0.395945 0.045000
vt 0.598994 0.155000
vt 0.192896 0.555000
vt 0.050762 0.350000
vt 0.010152 0.555000
vt 0.213201 0.155000
vt 0.416250 0.355000
vt 0.213201 0.355000
vt 0.862877 0.155000
vt 0.760854 0.155000
vt 0.612137 0.755000
vt 0.760196 0.555000
vt 0.000000 0.040000
vt 0.050762 0.220000
vt 0.451783 0.010000
vt 0.248735 0.010000
vt 0.451783 0.210000
vt 0.915214 0.245000
vt 0.813192 0.245000
vt 0.816182 0.645000
vt 0.813192 0.400000
vt 0.408091 0.800000
vt 0.816182 0.800000
vt 0.000000 1.000000
vt 0.915214 0.400000
vt 0.658173 0.400000
vt 0.862218 0.400000
vt 0.862877 0.000000
vt 0.964241 0.400000
vt 0.944672 0.000000
vt 0.102023 0.800000
vt 0.612137 0.600000
vt 0.760196 0.400000
vt 1.000000 0.600000
vn -1.000000 -0.000000 0.000000
vn 0.000000 0.000000 -1.000000
vn 1.000000 0.000000 0.000000
vn 0.000000 -1.000000 0.000000
vn 0.000000 1.000000 0.000000
vn -0.707100 0.707100 0.000000
vn 0.000000 0.707100 -0.707100
vn 0.707100 0.707100 0.000000
vn -0.992300 -0.124000 -0.000000
vn 0.000000 -0.124000 -0.992300
vn 0.992300 -0.124000 -0.000000
vn 0.000000 -0.099500 -0.995000
vn 0.995000 -0.099500 -0.000000
vn 0.000000 -0.099500 0.995000
vn -0.995000 -0.099500 -0.000000
vn 0.000000 -0.124000 0.992300
vn 0.000000 0.707100 0.707100
vn 0.000000 -0.000000 1.000000
usemtl None
s 1
f 1/1/1 2/2/1 3/3/1
f 4/4/2 5/5/2 6/6/2
f 7/7/3 8/8/3 9/9/3
f 6/10/4 5/11/4 10/12/4
f 11/13/5 12/14/5 13/15/5
f 14/16/5 15/11/5 16/17/5
f 17/18/5 18/4/5 19/19/5
f 20/20/5 21/1/5 22/21/5
f 23/22/5 24/14/5 25/23/5
f 26/24/5 27/25/5 28/26/5
f 29/27/5 7/28/5 30/29/5
f 31/30/5 32/31/5 33/32/5
f 34/33/5 35/25/5 36/34/5
f 37/35/5 38/28/5 39/36/5
f 40/37/5 41/38/5 42/39/5
f 43/40/5 4/41/5 44/42/5
f 45/43/5 46/44/5 47/45/5
f 48/46/5 1/4/5 49/47/5
f 50/48/6 51/49/6 52/50/6
f 53/51/7 54/4/7 55/52/7
f 56/53/8 57/44/8 58/54/8
f 52/55/9 51/56/9 59/57/9
f 55/58/10 54/59/10 31/60/10
f 58/61/11 57/62/11 17/63/11
f 33/64/12 32/65/12 34/66/12
f 19/67/13 18/68/13 20/69/13
f 36/70/12 35/71/12 37/72/12
f 22/73/13 21/74/13 23/75/13
f 13/76/14 12/77/14 14/78/14
f 47/79/15 46/80/15 60/81/15
f 39/82/12 38/83/12 40/84/12
f 25/85/13 24/86/13 26/87/13
f 42/88/12 41/89/12 43/90/12
f 28/91/13 27/92/13 29/93/13
f 61/79/14 62/94/14 29/95/14
f 63/73/14 64/96/14 26/97/14
f 65/98/14 66/99/14 23/100/14
f 67/101/12 68/102/12 45/87/12
f 69/103/14 70/104/14 20/63/14
f 33/64/12 71/105/12 72/106/12
f 73/107/16 74/108/16 17/109/16
f 75/110/10 76/111/10 59/112/10
f 56/53/17 77/113/17 73/114/17
f 78/115/5 44/42/5 79/116/5
f 60/117/5 80/118/5 81/119/5
f 29/27/5 62/120/5 82/36/5
f 26/24/5 64/121/5 61/34/5
f 23/22/5 66/122/5 63/123/5
f 20/20/5 70/124/5 65/125/5
f 17/18/5 74/126/5 69/52/5
f 2/127/4 83/128/4 84/129/4
f 82/130/18 85/131/18 8/132/18
f 86/133/5 87/134/5 77/113/5
f 28/91/13 88/135/13 89/136/13
f 90/137/15 91/138/15 92/139/15
f 93/140/15 94/141/15 95/142/15
f 96/143/15 97/144/15 14/145/15
f 19/67/13 98/146/13 99/147/13
f 100/148/15 101/149/15 11/150/15
f 102/151/9 103/152/9 104/153/9
f 105/154/6 106/155/6 102/156/6
f 92/157/5 91/158/5 107/54/5
f 95/159/5 94/160/5 90/29/5
f 14/16/5 97/161/5 93/12/5
f 11/13/5 101/162/5 96/23/5
f 104/163/5 103/164/5 100/165/5
f 88/166/5 30/29/5 108/167/5
f 109/168/5 28/26/5 110/169/5
f 37/35/5 111/170/5 112/171/5
f 98/172/5 22/21/5 113/173/5
f 114/174/5 19/19/5 115/175/5
f 116/176/5 106/155/5 105/154/5
f 117/177/4 9/45/4 8/44/4
f 107/173/1 118/178/1 119/179/1
f 120/180/5 121/171/5 96/23/5
f 122/181/15 120/182/15 101/149/15
f 123/183/18 124/184/18 85/131/18
f 125/185/5 126/186/5 69/52/5
f 127/187/5 123/188/5 82/36/5
f 128/189/16 125/190/16 74/108/16
f 129/191/18 119/7/18 124/184/18
f 130/192/5 50/48/5 131/193/5
f 104/163/5 132/49/5 126/186/5
f 95/159/5 133/28/5 134/194/5
f 92/157/5 129/44/5 123/188/5
f 59/195/5 135/65/5 122/196/5
f 136/197/5 137/28/5 121/171/5
f 60/117/5 138/41/5 139/167/5
f 105/154/17 140/198/17 128/199/17
f 128/189/16 140/200/16 104/201/16
f 122/181/15 135/202/15 136/203/15
f 126/204/14 132/205/14 11/206/14
f 121/207/15 137/208/15 45/209/15
f 16/210/14 15/211/14 95/212/14
f 139/213/15 138/214/15 48/215/15
f 134/140/14 133/216/14 92/217/14
f 81/218/12 141/135/12 48/93/12
f 42/88/12 78/136/12 141/135/12
f 142/91/12 80/219/12 60/220/12
f 39/82/12 143/221/12 80/219/12
f 36/70/12 144/222/12 68/102/12
f 145/223/12 72/106/12 136/224/12
f 55/58/10 146/225/10 76/111/10
f 50/48/7 130/192/7 75/186/7
f 147/226/7 55/52/7 75/186/7
f 48/46/5 141/227/5 79/116/5
f 143/228/5 42/39/5 81/119/5
f 45/43/5 68/229/5 142/188/5
f 144/230/5 39/36/5 142/188/5
f 136/197/5 72/231/5 67/194/5
f 71/232/5 36/34/5 67/194/5
f 59/195/5 76/233/5 145/234/5
f 146/235/5 33/32/5 145/234/5
f 53/51/5 147/226/5 148/236/5
f 83/128/4 6/10/4 149/237/4
f 79/175/2 83/9/2 2/8/2
f 44/19/2 6/6/2 83/9/2
f 150/238/4 117/177/4 85/114/4
f 118/239/4 150/238/4 124/199/4
f 110/82/13 89/136/13 43/90/13
f 112/240/13 151/222/13 40/72/13
f 25/85/13 109/102/13 151/222/13
f 113/210/13 111/241/13 37/242/13
f 22/73/13 152/243/13 111/241/13
f 115/244/13 99/147/13 34/245/13
f 153/246/11 154/247/11 31/206/11
f 58/61/11 114/104/11 154/247/11
f 53/51/8 155/248/8 153/47/8
f 86/133/8 58/54/8 153/47/8
f 43/40/5 89/249/5 108/167/5
f 40/37/5 151/250/5 110/169/5
f 152/251/5 25/23/5 112/171/5
f 34/33/5 99/252/5 113/173/5
f 31/30/5 154/253/5 115/175/5
f 108/131/3 10/6/3 5/5/3
f 30/184/3 9/9/3 10/6/3
f 49/21/1 3/3/1 118/178/1
f 149/237/4 10/12/4 9/45/4
f 156/254/5 131/193/5 106/155/5
f 157/255/5 122/196/5 100/165/5
f 158/256/5 47/45/5 93/12/5
f 159/257/5 139/167/5 90/29/5
f 160/258/5 49/47/5 107/54/5
f 131/193/6 52/50/6 102/156/6
f 52/55/9 157/259/9 103/152/9
f 121/207/15 158/260/15 97/144/15
f 47/79/15 159/261/15 94/141/15
f 139/213/15 160/262/15 91/138/15
f 155/248/5 148/236/5 87/134/5
f 3/263/4 84/129/4 150/238/4
f 84/129/4 149/237/4 117/177/4
f 148/236/5 156/254/5 116/176/5
f 87/134/5 116/176/5 161/264/5
f 147/226/5 130/192/5 156/254/5
f 162/265/5 13/15/5 65/125/5
f 163/266/5 16/17/5 63/123/5
f 164/267/5 134/194/5 61/34/5
f 161/264/17 128/199/17 73/114/17
f 126/204/14 162/247/14 70/104/14
f 13/76/14 163/268/14 66/99/14
f 16/210/14 164/269/14 64/96/14
f 134/140/14 127/270/14 62/94/14
f 49/21/1 1/1/1 3/3/1
f 44/19/2 4/4/2 6/6/2
f 30/184/3 7/7/3 9/9/3
f 149/237/4 6/10/4 10/12/4
f 162/265/5 11/13/5 13/15/5
f 163/266/5 14/16/5 16/17/5
f 114/174/5 17/18/5 19/19/5
f 98/172/5 20/20/5 22/21/5
f 152/251/5 23/22/5 25/23/5
f 109/168/5 26/24/5 28/26/5
f 88/166/5 29/27/5 30/29/5
f 146/235/5 31/30/5 33/32/5
f 71/232/5 34/33/5 36/34/5
f 144/230/5 37/35/5 39/36/5
f 143/228/5 40/37/5 42/39/5
f 78/115/5 43/40/5 44/42/5
f 158/256/5 45/43/5 47/45/5
f 160/258/5 48/46/5 49/47/5
f 131/193/6 50/48/6 52/50/6
f 147/226/7 53/51/7 55/52/7
f 86/133/8 56/53/8 58/54/8
f 157/259/9 52/55/9 59/57/9
f 146/225/10 55/58/10 31/60/10
f 114/104/11 58/61/11 17/63/11
f 71/105/12 33/64/12 34/66/12
f 98/146/13 19/67/13 20/69/13
f 144/222/12 36/70/12 37/72/12
f 152/243/13 22/73/13 23/75/13
f 163/268/14 13/76/14 14/78/14
f 159/261/15 47/79/15 60/81/15
f 143/221/12 39/82/12 40/84/12
f 109/102/13 25/85/13 26/87/13
f 78/136/12 42/88/12 43/90/12
f 88/135/13 28/91/13 29/93/13
f 27/80/14 61/79/14 29/95/14
f 24/74/14 63/73/14 26/97/14
f 21/271/14 65/98/14 23/100/14
f 137/272/12 67/101/12 45/87/12
f 18/273/14 69/103/14 20/63/14
f 145/223/12 33/64/12 72/106/12
f 57/274/16 73/107/16 17/109/16
f 51/275/10 75/110/10 59/112/10
f 57/44/17 56/53/17 73/114/17
f 141/227/5 78/115/5 79/116/5
f 138/41/5 60/117/5 81/119/5
f 7/28/5 29/27/5 82/36/5
f 27/25/5 26/24/5 61/34/5
f 24/14/5 23/22/5 63/123/5
f 21/1/5 20/20/5 65/125/5
f 18/4/5 17/18/5 69/52/5
f 3/263/4 2/127/4 84/129/4
f 7/276/18 82/130/18 8/132/18
f 56/53/5 86/133/5 77/113/5
f 110/82/13 28/91/13 89/136/13
f 133/277/15 90/137/15 92/139/15
f 15/216/15 93/140/15 95/142/15
f 12/278/15 96/143/15 14/145/15
f 115/244/13 19/67/13 99/147/13
f 132/279/15 100/148/15 11/150/15
f 140/280/9 102/151/9 104/153/9
f 140/198/6 105/154/6 102/156/6
f 129/44/5 92/157/5 107/54/5
f 133/28/5 95/159/5 90/29/5
f 15/11/5 14/16/5 93/12/5
f 12/14/5 11/13/5 96/23/5
f 132/49/5 104/163/5 100/165/5
f 89/249/5 88/166/5 108/167/5
f 151/250/5 109/168/5 110/169/5
f 38/28/5 37/35/5 112/171/5
f 99/252/5 98/172/5 113/173/5
f 154/253/5 114/174/5 115/175/5
f 161/264/5 116/176/5 105/154/5
f 85/114/4 117/177/4 8/44/4
f 129/25/1 107/173/1 119/179/1
f 101/162/5 120/180/5 96/23/5
f 100/148/15 122/181/15 101/149/15
f 82/130/18 123/183/18 85/131/18
f 74/126/5 125/185/5 69/52/5
f 62/120/5 127/187/5 82/36/5
f 73/107/16 128/189/16 74/108/16
f 123/183/18 129/191/18 124/184/18
f 156/254/5 130/192/5 131/193/5
f 125/185/5 104/163/5 126/186/5
f 164/267/5 95/159/5 134/194/5
f 127/187/5 92/157/5 123/188/5
f 157/255/5 59/195/5 122/196/5
f 120/180/5 136/197/5 121/171/5
f 159/257/5 60/117/5 139/167/5
f 161/264/17 105/154/17 128/199/17
f 125/190/16 128/189/16 104/201/16
f 120/182/15 122/181/15 136/203/15
f 162/247/14 126/204/14 11/206/14
f 158/260/15 121/207/15 45/209/15
f 164/269/14 16/210/14 95/212/14
f 160/262/15 139/213/15 48/215/15
f 127/270/14 134/140/14 92/217/14
f 138/281/12 81/218/12 48/93/12
f 81/218/12 42/88/12 141/135/12
f 46/92/12 142/91/12 60/220/12
f 142/91/12 39/82/12 80/219/12
f 67/101/12 36/70/12 68/102/12
f 135/200/12 145/223/12 136/224/12
f 75/110/10 55/58/10 76/111/10
f 51/49/7 50/48/7 75/186/7
f 130/192/7 147/226/7 75/186/7
f 1/4/5 48/46/5 79/116/5
f 80/118/5 143/228/5 81/119/5
f 46/44/5 45/43/5 142/188/5
f 68/229/5 144/230/5 142/188/5
f 137/28/5 136/197/5 67/194/5
f 72/231/5 71/232/5 67/194/5
f 135/65/5 59/195/5 145/234/5
f 76/233/5 146/235/5 145/234/5
f 155/248/5 53/51/5 148/236/5
f 84/129/4 83/128/4 149/237/4
f 1/31/2 79/175/2 2/8/2
f 79/175/2 44/19/2 83/9/2
f 124/199/4 150/238/4 85/114/4
f 119/198/4 118/239/4 124/199/4
f 41/83/13 110/82/13 43/90/13
f 38/282/13 112/240/13 40/72/13
f 112/240/13 25/85/13 151/222/13
f 35/211/13 113/210/13 37/242/13
f 113/210/13 22/73/13 111/241/13
f 32/283/13 115/244/13 34/245/13
f 54/284/11 153/246/11 31/206/11
f 153/246/11 58/61/11 154/247/11
f 54/4/8 53/51/8 153/47/8
f 155/248/8 86/133/8 153/47/8
f 4/41/5 43/40/5 108/167/5
f 41/38/5 40/37/5 110/169/5
f 111/170/5 152/251/5 112/171/5
f 35/25/5 34/33/5 113/173/5
f 32/31/5 31/30/5 115/175/5
f 4/132/3 108/131/3 5/5/3
f 108/131/3 30/184/3 10/6/3
f 107/173/1 49/21/1 118/178/1
f 117/177/4 149/237/4 9/45/4
f 116/176/5 156/254/5 106/155/5
f 103/164/5 157/255/5 100/165/5
f 97/161/5 158/256/5 93/12/5
f 94/160/5 159/257/5 90/29/5
f 91/158/5 160/258/5 107/54/5
f 106/155/6 131/193/6 102/156/6
f 102/151/9 52/55/9 103/152/9
f 96/143/15 121/207/15 97/144/15
f 93/140/15 47/79/15 94/141/15
f 90/137/15 139/213/15 91/138/15
f 86/133/5 155/248/5 87/134/5
f 118/239/4 3/263/4 150/238/4
f 150/238/4 84/129/4 117/177/4
f 87/134/5 148/236/5 116/176/5
f 77/113/5 87/134/5 161/264/5
f 148/236/5 147/226/5 156/254/5
f 70/124/5 162/265/5 65/125/5
f 66/122/5 163/266/5 63/123/5
f 64/121/5 164/267/5 61/34/5
f 77/113/17 161/264/17 73/114/17
f 69/103/14 126/204/14 70/104/14
f 65/98/14 13/76/14 66/99/14
f 63/73/14 16/210/14 64/96/14
f 61/79/14 134/140/14 62/94/14
